ISO-10303-21;
HEADER;
FILE_DESCRIPTION(('FreeCAD Model'),'2;1');
FILE_NAME('Open CASCADE Shape Model','2026-09-26T15:27:58',('Author'),(
    ''),'Open CASCADE STEP processor 7.8','FreeCAD','Unknown');
FILE_SCHEMA(('AUTOMOTIVE_DESIGN { 1 0 10303 214 1 1 1 1 }'));
ENDSEC;
DATA;
#1 = APPLICATION_PROTOCOL_DEFINITION('international standard',
  'automotive_design',2000,#2);
#2 = APPLICATION_CONTEXT(
  'core data for automotive mechanical design processes');
#3 = SHAPE_DEFINITION_REPRESENTATION(#4,#10);
#4 = PRODUCT_DEFINITION_SHAPE('','',#5);
#5 = PRODUCT_DEFINITION('design','',#6,#9);
#6 = PRODUCT_DEFINITION_FORMATION('','',#7);
#7 = PRODUCT('Body','Body','',(#8));
#8 = PRODUCT_CONTEXT('',#2,'mechanical');
#9 = PRODUCT_DEFINITION_CONTEXT('part definition',#2,'design');
#10 = ADVANCED_BREP_SHAPE_REPRESENTATION('',(#11,#15),#727);
#11 = AXIS2_PLACEMENT_3D('',#12,#13,#14);
#12 = CARTESIAN_POINT('',(0.,0.,0.));
#13 = DIRECTION('',(0.,0.,1.));
#14 = DIRECTION('',(1.,0.,-0.));
#15 = MANIFOLD_SOLID_BREP('',#16);
#16 = CLOSED_SHELL('',(#17,#140,#172,#246,#305,#358,#391,#424,#475,#522,
    #547,#564,#591,#600,#618,#644,#653,#678,#695,#704));
#17 = ADVANCED_FACE('',(#18),#135,.T.);
#18 = FACE_BOUND('',#19,.F.);
#19 = EDGE_LOOP('',(#20,#39,#48,#70,#79,#88,#97,#106,#115));
#20 = ORIENTED_EDGE('',*,*,#21,.F.);
#21 = EDGE_CURVE('',#22,#24,#26,.T.);
#22 = VERTEX_POINT('',#23);
#23 = CARTESIAN_POINT('',(4.931700704899,0.82360679775,0.5));
#24 = VERTEX_POINT('',#25);
#25 = CARTESIAN_POINT('',(4.875891521092,0.9,0.3));
#26 = B_SPLINE_CURVE_WITH_KNOTS('',6,(#27,#28,#29,#30,#31,#32,#33,#34,
    #35,#36,#37,#38),.UNSPECIFIED.,.F.,.F.,(7,5,7),(0.,0.89636272881,1.)
  ,.UNSPECIFIED.);
#27 = CARTESIAN_POINT('',(4.931700704899,0.82360679775,0.5));
#28 = CARTESIAN_POINT('',(4.9278795944,0.846487343895,0.474418771728));
#29 = CARTESIAN_POINT('',(4.922997004441,0.86540707242,0.446198338079));
#30 = CARTESIAN_POINT('',(4.916552261407,0.880135386124,0.416116672184)
  );
#31 = CARTESIAN_POINT('',(4.908189268416,0.890612596023,0.384917702074)
  );
#32 = CARTESIAN_POINT('',(4.897728935275,0.896914128146,0.353279035128)
  );
#33 = CARTESIAN_POINT('',(4.88363314592,0.899472574754,0.318152140128));
#34 = CARTESIAN_POINT('',(4.882143260225,0.89968413716,0.314513795983));
#35 = CARTESIAN_POINT('',(4.880624231401,0.899842373337,0.310878497353)
  );
#36 = CARTESIAN_POINT('',(4.879075972919,0.899947562249,0.307247163973)
  );
#37 = CARTESIAN_POINT('',(4.877498418295,0.900000000032,0.303620701198)
  );
#38 = CARTESIAN_POINT('',(4.875891521092,0.9,0.3));
#39 = ORIENTED_EDGE('',*,*,#40,.T.);
#40 = EDGE_CURVE('',#22,#41,#43,.T.);
#41 = VERTEX_POINT('',#42);
#42 = CARTESIAN_POINT('',(4.931700704899,-0.82360679775,0.5));
#43 = CIRCLE('',#44,5.);
#44 = AXIS2_PLACEMENT_3D('',#45,#46,#47);
#45 = CARTESIAN_POINT('',(0.,0.,0.5));
#46 = DIRECTION('',(0.,0.,1.));
#47 = DIRECTION('',(1.,0.,0.));
#48 = ORIENTED_EDGE('',*,*,#49,.T.);
#49 = EDGE_CURVE('',#41,#50,#52,.T.);
#50 = VERTEX_POINT('',#51);
#51 = CARTESIAN_POINT('',(4.459820624196,-0.6,0.));
#52 = B_SPLINE_CURVE_WITH_KNOTS('',6,(#53,#54,#55,#56,#57,#58,#59,#60,
    #61,#62,#63,#64,#65,#66,#67,#68,#69),.UNSPECIFIED.,.F.,.F.,(7,5,5,7)
  ,(0.,0.318415492637,0.661615240337,1.),.UNSPECIFIED.);
#53 = CARTESIAN_POINT('',(4.931700704899,-0.82360679775,0.5));
#54 = CARTESIAN_POINT('',(4.927073041988,-0.851316924116,0.46901913689)
  );
#55 = CARTESIAN_POINT('',(4.920889747754,-0.873213070706,0.434172540889)
  );
#56 = CARTESIAN_POINT('',(4.912258317297,-0.888897014364,0.396835369176)
  );
#57 = CARTESIAN_POINT('',(4.900607318613,-0.898319830184,0.358311737313)
  );
#58 = CARTESIAN_POINT('',(4.885739031632,-0.901710603063,0.319760147241)
  );
#59 = CARTESIAN_POINT('',(4.848127920177,-0.897051532729,0.241606884047)
  );
#60 = CARTESIAN_POINT('',(4.824868814132,-0.888091394596,0.202169077876)
  );
#61 = CARTESIAN_POINT('',(4.797863695234,-0.873095036862,0.165072212932)
  );
#62 = CARTESIAN_POINT('',(4.767415680146,-0.852829574247,0.131312926097)
  );
#63 = CARTESIAN_POINT('',(4.733970203751,-0.82817509869,0.101601915916)
  );
#64 = CARTESIAN_POINT('',(4.662623175892,-0.772291489369,
    5.160194212682E-02));
#65 = CARTESIAN_POINT('',(4.624789437966,-0.741158527097,
    3.118563079078E-02));
#66 = CARTESIAN_POINT('',(4.585030980867,-0.707497489724,
    1.563667600795E-02));
#67 = CARTESIAN_POINT('',(4.543900591605,-0.672189922662,
    5.207774333191E-03));
#68 = CARTESIAN_POINT('',(4.501967835834,-0.636082143377,
    -1.867150763342E-08));
#69 = CARTESIAN_POINT('',(4.459820624182,-0.6000000001,0.));
#70 = ORIENTED_EDGE('',*,*,#71,.F.);
#71 = EDGE_CURVE('',#72,#50,#74,.T.);
#72 = VERTEX_POINT('',#73);
#73 = CARTESIAN_POINT('',(4.186585721086,-1.65,0.));
#74 = CIRCLE('',#75,4.5);
#75 = AXIS2_PLACEMENT_3D('',#76,#77,#78);
#76 = CARTESIAN_POINT('',(0.,0.,0.));
#77 = DIRECTION('',(0.,0.,1.));
#78 = DIRECTION('',(1.,0.,0.));
#79 = ORIENTED_EDGE('',*,*,#80,.F.);
#80 = EDGE_CURVE('',#81,#72,#83,.T.);
#81 = VERTEX_POINT('',#82);
#82 = CARTESIAN_POINT('',(4.002269764185,-2.057142857143,0.));
#83 = CIRCLE('',#84,4.5);
#84 = AXIS2_PLACEMENT_3D('',#85,#86,#87);
#85 = CARTESIAN_POINT('',(0.,0.,0.));
#86 = DIRECTION('',(0.,0.,1.));
#87 = DIRECTION('',(1.,0.,0.));
#88 = ORIENTED_EDGE('',*,*,#89,.F.);
#89 = EDGE_CURVE('',#90,#81,#92,.T.);
#90 = VERTEX_POINT('',#91);
#91 = CARTESIAN_POINT('',(4.002269764185,2.057142857143,0.));
#92 = CIRCLE('',#93,4.5);
#93 = AXIS2_PLACEMENT_3D('',#94,#95,#96);
#94 = CARTESIAN_POINT('',(0.,0.,0.));
#95 = DIRECTION('',(0.,0.,1.));
#96 = DIRECTION('',(1.,0.,0.));
#97 = ORIENTED_EDGE('',*,*,#98,.F.);
#98 = EDGE_CURVE('',#99,#90,#101,.T.);
#99 = VERTEX_POINT('',#100);
#100 = CARTESIAN_POINT('',(4.186585721086,1.65,0.));
#101 = CIRCLE('',#102,4.5);
#102 = AXIS2_PLACEMENT_3D('',#103,#104,#105);
#103 = CARTESIAN_POINT('',(0.,0.,0.));
#104 = DIRECTION('',(0.,0.,1.));
#105 = DIRECTION('',(1.,0.,0.));
#106 = ORIENTED_EDGE('',*,*,#107,.F.);
#107 = EDGE_CURVE('',#108,#99,#110,.T.);
#108 = VERTEX_POINT('',#109);
#109 = CARTESIAN_POINT('',(4.459820624196,0.6,0.));
#110 = CIRCLE('',#111,4.5);
#111 = AXIS2_PLACEMENT_3D('',#112,#113,#114);
#112 = CARTESIAN_POINT('',(0.,0.,0.));
#113 = DIRECTION('',(0.,0.,1.));
#114 = DIRECTION('',(1.,0.,0.));
#115 = ORIENTED_EDGE('',*,*,#116,.F.);
#116 = EDGE_CURVE('',#24,#108,#117,.T.);
#117 = B_SPLINE_CURVE_WITH_KNOTS('',6,(#118,#119,#120,#121,#122,#123,
    #124,#125,#126,#127,#128,#129,#130,#131,#132,#133,#134),
  .UNSPECIFIED.,.F.,.F.,(7,5,5,7),(0.,0.503704173259,0.958784591007,1.),
  .UNSPECIFIED.);
#118 = CARTESIAN_POINT('',(4.875891521092,0.9,0.3));
#119 = CARTESIAN_POINT('',(4.857076115032,0.9,0.257604652596));
#120 = CARTESIAN_POINT('',(4.834237837943,0.892810699978,0.215999305615)
  );
#121 = CARTESIAN_POINT('',(4.807303794029,0.878933390507,0.176620906503)
  );
#122 = CARTESIAN_POINT('',(4.776574217297,0.859190831064,0.140638680785)
  );
#123 = CARTESIAN_POINT('',(4.742529156933,0.834554785133,0.108887804001)
  );
#124 = CARTESIAN_POINT('',(4.672499481096,0.780262502577,
    5.759060874648E-02));
#125 = CARTESIAN_POINT('',(4.637017702593,0.751319274413,
    3.71607114991E-02));
#126 = CARTESIAN_POINT('',(4.599705347553,0.719938555231,
    2.106373715264E-02));
#127 = CARTESIAN_POINT('',(4.561031583312,0.686878086402,
    9.542322723255E-03));
#128 = CARTESIAN_POINT('',(4.521481785148,0.652869748551,
    2.708985161698E-03));
#129 = CARTESIAN_POINT('',(4.477939378578,0.615524862819,
    3.858578139335E-04));
#130 = CARTESIAN_POINT('',(4.474320275487,0.612421601799,
    2.315089055581E-04));
#131 = CARTESIAN_POINT('',(4.470698475593,0.609316953138,
    1.157482238227E-04));
#132 = CARTESIAN_POINT('',(4.467074354504,0.606211448254,
    3.857959305979E-05));
#133 = CARTESIAN_POINT('',(4.463448282102,0.603105621923,
    8.124548218436E-11));
#134 = CARTESIAN_POINT('',(4.459820622543,0.60000001228,0.));
#135 = TOROIDAL_SURFACE('',#136,4.5,0.5);
#136 = AXIS2_PLACEMENT_3D('',#137,#138,#139);
#137 = CARTESIAN_POINT('',(0.,0.,0.5));
#138 = DIRECTION('',(-0.,-0.,-1.));
#139 = DIRECTION('',(1.,0.,0.));
#140 = ADVANCED_FACE('',(#141),#167,.T.);
#141 = FACE_BOUND('',#142,.T.);
#142 = EDGE_LOOP('',(#143,#144,#152,#161));
#143 = ORIENTED_EDGE('',*,*,#89,.F.);
#144 = ORIENTED_EDGE('',*,*,#145,.T.);
#145 = EDGE_CURVE('',#90,#146,#148,.T.);
#146 = VERTEX_POINT('',#147);
#147 = CARTESIAN_POINT('',(4.002269764185,2.057142857143,-0.1));
#148 = LINE('',#149,#150);
#149 = CARTESIAN_POINT('',(4.002269764185,2.057142857143,0.));
#150 = VECTOR('',#151,1.);
#151 = DIRECTION('',(-0.,-0.,-1.));
#152 = ORIENTED_EDGE('',*,*,#153,.T.);
#153 = EDGE_CURVE('',#146,#154,#156,.T.);
#154 = VERTEX_POINT('',#155);
#155 = CARTESIAN_POINT('',(4.002269764185,-2.057142857143,-0.1));
#156 = CIRCLE('',#157,4.5);
#157 = AXIS2_PLACEMENT_3D('',#158,#159,#160);
#158 = CARTESIAN_POINT('',(0.,0.,-0.1));
#159 = DIRECTION('',(0.,0.,1.));
#160 = DIRECTION('',(1.,0.,0.));
#161 = ORIENTED_EDGE('',*,*,#162,.F.);
#162 = EDGE_CURVE('',#81,#154,#163,.T.);
#163 = LINE('',#164,#165);
#164 = CARTESIAN_POINT('',(4.002269764185,-2.057142857143,0.));
#165 = VECTOR('',#166,1.);
#166 = DIRECTION('',(-0.,-0.,-1.));
#167 = CYLINDRICAL_SURFACE('',#168,4.5);
#168 = AXIS2_PLACEMENT_3D('',#169,#170,#171);
#169 = CARTESIAN_POINT('',(0.,0.,0.));
#170 = DIRECTION('',(0.,0.,1.));
#171 = DIRECTION('',(1.,0.,0.));
#172 = ADVANCED_FACE('',(#173),#241,.T.);
#173 = FACE_BOUND('',#174,.F.);
#174 = EDGE_LOOP('',(#175,#194,#202,#209,#210,#225,#226));
#175 = ORIENTED_EDGE('',*,*,#176,.T.);
#176 = EDGE_CURVE('',#177,#179,#181,.T.);
#177 = VERTEX_POINT('',#178);
#178 = CARTESIAN_POINT('',(4.985812687747,-0.37639320225,0.5));
#179 = VERTEX_POINT('',#180);
#180 = CARTESIAN_POINT('',(4.949173479023,-0.3,0.3));
#181 = B_SPLINE_CURVE_WITH_KNOTS('',6,(#182,#183,#184,#185,#186,#187,
    #188,#189,#190,#191,#192,#193),.UNSPECIFIED.,.F.,.F.,(7,5,7),(0.,
    0.896261444082,1.),.UNSPECIFIED.);
#182 = CARTESIAN_POINT('',(4.985812687747,-0.37639320225,0.5));
#183 = CARTESIAN_POINT('',(4.987538066314,-0.353538341165,0.474447488499
    ));
#184 = CARTESIAN_POINT('',(4.98726917647,-0.334612501382,0.446236057503)
  );
#185 = CARTESIAN_POINT('',(4.984456029583,-0.319867007333,0.416138740143
    ));
#186 = CARTESIAN_POINT('',(4.978729765662,-0.309381068992,0.384910791822
    ));
#187 = CARTESIAN_POINT('',(4.969933446682,-0.303084204254,0.353256134057
    ));
#188 = CARTESIAN_POINT('',(4.956672443986,-0.300527329435,0.318150825288
    ));
#189 = CARTESIAN_POINT('',(4.955255398708,-0.300315745006,0.314511647338
    ));
#190 = CARTESIAN_POINT('',(4.953796963629,-0.300157536197,0.310876032823
    ));
#191 = CARTESIAN_POINT('',(4.952297142113,-0.300052396623,0.307244932868
    ));
#192 = CARTESIAN_POINT('',(4.950755962684,-0.299999999972,0.30361928237)
  );
#193 = CARTESIAN_POINT('',(4.949173479023,-0.3,0.3));
#194 = ORIENTED_EDGE('',*,*,#195,.T.);
#195 = EDGE_CURVE('',#179,#196,#198,.T.);
#196 = VERTEX_POINT('',#197);
#197 = CARTESIAN_POINT('',(10.,-0.3,0.3));
#198 = LINE('',#199,#200);
#199 = CARTESIAN_POINT('',(0.,-0.3,0.3));
#200 = VECTOR('',#201,1.);
#201 = DIRECTION('',(1.,0.,0.));
#202 = ORIENTED_EDGE('',*,*,#203,.T.);
#203 = EDGE_CURVE('',#196,#196,#204,.T.);
#204 = CIRCLE('',#205,0.3);
#205 = AXIS2_PLACEMENT_3D('',#206,#207,#208);
#206 = CARTESIAN_POINT('',(10.,-0.6,0.3));
#207 = DIRECTION('',(1.,0.,0.));
#208 = DIRECTION('',(0.,1.,0.));
#209 = ORIENTED_EDGE('',*,*,#195,.F.);
#210 = ORIENTED_EDGE('',*,*,#211,.T.);
#211 = EDGE_CURVE('',#179,#50,#212,.T.);
#212 = B_SPLINE_CURVE_WITH_KNOTS('',6,(#213,#214,#215,#216,#217,#218,
    #219,#220,#221,#222,#223,#224),.UNSPECIFIED.,.F.,.F.,(7,5,7),(0.,
    0.501185420765,1.),.UNSPECIFIED.);
#213 = CARTESIAN_POINT('',(4.949173479023,-0.3,0.3));
#214 = CARTESIAN_POINT('',(4.930406136961,-0.3,0.257077400618));
#215 = CARTESIAN_POINT('',(4.905829748967,-0.307369222524,0.215050439386
    ));
#216 = CARTESIAN_POINT('',(4.87553684723,-0.321532112489,0.175463831138)
  );
#217 = CARTESIAN_POINT('',(4.840105578115,-0.341518855238,0.139508492286
    ));
#218 = CARTESIAN_POINT('',(4.800287070057,-0.366255284097,0.107945991837
    ));
#219 = CARTESIAN_POINT('',(4.713673088194,-0.423001096047,
    5.468721382428E-02));
#220 = CARTESIAN_POINT('',(4.666908240525,-0.454977581208,
    3.294266850825E-02));
#221 = CARTESIAN_POINT('',(4.617344971536,-0.489608299679,
    1.647618419331E-02));
#222 = CARTESIAN_POINT('',(4.565788940119,-0.525906635559,
    5.480627021261E-03));
#223 = CARTESIAN_POINT('',(4.513017620435,-0.562984637584,
    -1.575838447752E-08));
#224 = CARTESIAN_POINT('',(4.459820624182,-0.6000000001,0.));
#225 = ORIENTED_EDGE('',*,*,#49,.F.);
#226 = ORIENTED_EDGE('',*,*,#227,.F.);
#227 = EDGE_CURVE('',#177,#41,#228,.T.);
#228 = B_SPLINE_CURVE_WITH_KNOTS('',6,(#229,#230,#231,#232,#233,#234,
    #235,#236,#237,#238,#239,#240),.UNSPECIFIED.,.F.,.F.,(7,5,7),(0.,
    0.499795675972,1.),.UNSPECIFIED.);
#229 = CARTESIAN_POINT('',(4.985815211017,-0.376359776796,0.499962622921
    ));
#230 = CARTESIAN_POINT('',(4.98372948114,-0.403990422759,0.530865017279)
  );
#231 = CARTESIAN_POINT('',(4.981051534337,-0.437016062173,0.557489071948
    ));
#232 = CARTESIAN_POINT('',(4.977714074175,-0.474546775587,0.578458921223
    ));
#233 = CARTESIAN_POINT('',(4.973673397841,-0.515240669726,0.592802576024
    ));
#234 = CARTESIAN_POINT('',(4.968996629938,-0.557582316296,0.6));
#235 = CARTESIAN_POINT('',(4.958738094724,-0.642452365685,0.6));
#236 = CARTESIAN_POINT('',(4.953177230578,-0.684801890207,0.592790820393
    ));
#237 = CARTESIAN_POINT('',(4.947377295875,-0.725483302148,0.578440579687
    ));
#238 = CARTESIAN_POINT('',(4.941632631445,-0.762993178304,0.557477135407
    ));
#239 = CARTESIAN_POINT('',(4.936310047419,-0.796007524655,0.530867312912
    ));
#240 = CARTESIAN_POINT('',(4.931695122645,-0.823640223204,0.499962622921
    ));
#241 = CYLINDRICAL_SURFACE('',#242,0.3);
#242 = AXIS2_PLACEMENT_3D('',#243,#244,#245);
#243 = CARTESIAN_POINT('',(0.,-0.6,0.3));
#244 = DIRECTION('',(-1.,-0.,-0.));
#245 = DIRECTION('',(0.,1.,0.));
#246 = ADVANCED_FACE('',(#247),#300,.T.);
#247 = FACE_BOUND('',#248,.F.);
#248 = EDGE_LOOP('',(#249,#260,#268,#275,#276,#283,#284,#285));
#249 = ORIENTED_EDGE('',*,*,#250,.F.);
#250 = EDGE_CURVE('',#251,#253,#255,.T.);
#251 = VERTEX_POINT('',#252);
#252 = CARTESIAN_POINT('',(5.,0.,0.5));
#253 = VERTEX_POINT('',#254);
#254 = CARTESIAN_POINT('',(4.985812687747,0.37639320225,0.5));
#255 = CIRCLE('',#256,5.);
#256 = AXIS2_PLACEMENT_3D('',#257,#258,#259);
#257 = CARTESIAN_POINT('',(0.,0.,0.5));
#258 = DIRECTION('',(0.,0.,1.));
#259 = DIRECTION('',(1.,0.,0.));
#260 = ORIENTED_EDGE('',*,*,#261,.T.);
#261 = EDGE_CURVE('',#251,#262,#264,.T.);
#262 = VERTEX_POINT('',#263);
#263 = CARTESIAN_POINT('',(5.,0.,3.2));
#264 = LINE('',#265,#266);
#265 = CARTESIAN_POINT('',(5.,0.,0.));
#266 = VECTOR('',#267,1.);
#267 = DIRECTION('',(0.,0.,1.));
#268 = ORIENTED_EDGE('',*,*,#269,.T.);
#269 = EDGE_CURVE('',#262,#262,#270,.T.);
#270 = CIRCLE('',#271,5.);
#271 = AXIS2_PLACEMENT_3D('',#272,#273,#274);
#272 = CARTESIAN_POINT('',(0.,0.,3.2));
#273 = DIRECTION('',(0.,0.,1.));
#274 = DIRECTION('',(1.,0.,0.));
#275 = ORIENTED_EDGE('',*,*,#261,.F.);
#276 = ORIENTED_EDGE('',*,*,#277,.F.);
#277 = EDGE_CURVE('',#177,#251,#278,.T.);
#278 = CIRCLE('',#279,5.);
#279 = AXIS2_PLACEMENT_3D('',#280,#281,#282);
#280 = CARTESIAN_POINT('',(0.,0.,0.5));
#281 = DIRECTION('',(0.,0.,1.));
#282 = DIRECTION('',(1.,0.,0.));
#283 = ORIENTED_EDGE('',*,*,#227,.T.);
#284 = ORIENTED_EDGE('',*,*,#40,.F.);
#285 = ORIENTED_EDGE('',*,*,#286,.T.);
#286 = EDGE_CURVE('',#22,#253,#287,.T.);
#287 = B_SPLINE_CURVE_WITH_KNOTS('',6,(#288,#289,#290,#291,#292,#293,
    #294,#295,#296,#297,#298,#299),.UNSPECIFIED.,.F.,.F.,(7,5,7),(0.,
    0.500146083874,1.),.UNSPECIFIED.);
#288 = CARTESIAN_POINT('',(4.931695122645,0.823640223204,0.499962622921)
  );
#289 = CARTESIAN_POINT('',(4.936309475466,0.79601094933,0.53086348272));
#290 = CARTESIAN_POINT('',(4.941632029593,0.762996942139,0.557475500831)
  );
#291 = CARTESIAN_POINT('',(4.947377360207,0.725483604789,0.57844186739)
  );
#292 = CARTESIAN_POINT('',(4.953177831243,0.684797710733,0.592792547969)
  );
#293 = CARTESIAN_POINT('',(4.958738697247,0.642447380943,0.6));
#294 = CARTESIAN_POINT('',(4.968997222335,0.557577415323,0.6));
#295 = CARTESIAN_POINT('',(4.973673819646,0.515236410554,0.592800876479)
  );
#296 = CARTESIAN_POINT('',(4.977713948242,0.474546938129,0.578457559944)
  );
#297 = CARTESIAN_POINT('',(4.98105121111,0.437019963732,0.557490670058)
  );
#298 = CARTESIAN_POINT('',(4.983729204225,0.403994091185,0.530869120084)
  );
#299 = CARTESIAN_POINT('',(4.985815211017,0.376359776796,0.499962622921)
  );
#300 = CYLINDRICAL_SURFACE('',#301,5.);
#301 = AXIS2_PLACEMENT_3D('',#302,#303,#304);
#302 = CARTESIAN_POINT('',(0.,0.,0.));
#303 = DIRECTION('',(-0.,-0.,-1.));
#304 = DIRECTION('',(1.,0.,0.));
#305 = ADVANCED_FACE('',(#306),#353,.T.);
#306 = FACE_BOUND('',#307,.F.);
#307 = EDGE_LOOP('',(#308,#309,#317,#324,#325,#326,#352));
#308 = ORIENTED_EDGE('',*,*,#21,.T.);
#309 = ORIENTED_EDGE('',*,*,#310,.T.);
#310 = EDGE_CURVE('',#24,#311,#313,.T.);
#311 = VERTEX_POINT('',#312);
#312 = CARTESIAN_POINT('',(10.,0.9,0.3));
#313 = LINE('',#314,#315);
#314 = CARTESIAN_POINT('',(0.,0.9,0.3));
#315 = VECTOR('',#316,1.);
#316 = DIRECTION('',(1.,0.,0.));
#317 = ORIENTED_EDGE('',*,*,#318,.T.);
#318 = EDGE_CURVE('',#311,#311,#319,.T.);
#319 = CIRCLE('',#320,0.3);
#320 = AXIS2_PLACEMENT_3D('',#321,#322,#323);
#321 = CARTESIAN_POINT('',(10.,0.6,0.3));
#322 = DIRECTION('',(1.,0.,0.));
#323 = DIRECTION('',(0.,1.,0.));
#324 = ORIENTED_EDGE('',*,*,#310,.F.);
#325 = ORIENTED_EDGE('',*,*,#116,.T.);
#326 = ORIENTED_EDGE('',*,*,#327,.F.);
#327 = EDGE_CURVE('',#253,#108,#328,.T.);
#328 = B_SPLINE_CURVE_WITH_KNOTS('',8,(#329,#330,#331,#332,#333,#334,
    #335,#336,#337,#338,#339,#340,#341,#342,#343,#344,#345,#346,#347,
    #348,#349,#350,#351),.UNSPECIFIED.,.F.,.F.,(9,7,7,9),(0.,
    0.461441949872,0.729700627686,1.),.UNSPECIFIED.);
#329 = CARTESIAN_POINT('',(4.985812687747,0.37639320225,0.5));
#330 = CARTESIAN_POINT('',(4.988114809432,0.345898635836,0.465906038276)
  );
#331 = CARTESIAN_POINT('',(4.987034723778,0.322073207137,0.427312171273)
  );
#332 = CARTESIAN_POINT('',(4.981472990762,0.305408876156,0.385768553558)
  );
#333 = CARTESIAN_POINT('',(4.970700763402,0.296039276945,0.342778290007)
  );
#334 = CARTESIAN_POINT('',(4.954471547889,0.293788155367,0.299763977629)
  );
#335 = CARTESIAN_POINT('',(4.932865027174,0.298187752724,0.257971457475)
  );
#336 = CARTESIAN_POINT('',(4.906213879534,0.30858550459,0.218424089777)
  );
#337 = CARTESIAN_POINT('',(4.85686569758,0.333303425611,0.160694857683)
  );
#338 = CARTESIAN_POINT('',(4.837180353157,0.344161121351,0.14049495545)
  );
#339 = CARTESIAN_POINT('',(4.816042982649,0.356642457627,0.121471131381)
  );
#340 = CARTESIAN_POINT('',(4.793560108154,0.370590340337,0.103749669859)
  );
#341 = CARTESIAN_POINT('',(4.76984731569,0.385843554949,
    8.743197405565E-02));
#342 = CARTESIAN_POINT('',(4.745024736705,0.402241227215,
    7.25971127109E-02));
#343 = CARTESIAN_POINT('',(4.719213944365,0.41962581627,
    5.930500438608E-02));
#344 = CARTESIAN_POINT('',(4.665655642698,0.456202057969,
    3.58064336362E-02));
#345 = CARTESIAN_POINT('',(4.637895650532,0.475405972372,
    2.562463251802E-02));
#346 = CARTESIAN_POINT('',(4.609379845847,0.495300401384,
    1.709955053187E-02));
#347 = CARTESIAN_POINT('',(4.580232325883,0.515734166819,
    1.026138371709E-02));
#348 = CARTESIAN_POINT('',(4.550577632776,0.536560766592,
    5.128065957535E-03));
#349 = CARTESIAN_POINT('',(4.520540658944,0.557638247086,
    1.707525480821E-03));
#350 = CARTESIAN_POINT('',(4.490246552481,0.578829075513,
    -5.864255210337E-08));
#351 = CARTESIAN_POINT('',(4.459820622543,0.60000001228,0.));
#352 = ORIENTED_EDGE('',*,*,#286,.F.);
#353 = CYLINDRICAL_SURFACE('',#354,0.3);
#354 = AXIS2_PLACEMENT_3D('',#355,#356,#357);
#355 = CARTESIAN_POINT('',(0.,0.6,0.3));
#356 = DIRECTION('',(-1.,-0.,-0.));
#357 = DIRECTION('',(0.,1.,0.));
#358 = ADVANCED_FACE('',(#359),#386,.F.);
#359 = FACE_BOUND('',#360,.T.);
#360 = EDGE_LOOP('',(#361,#370,#378,#385));
#361 = ORIENTED_EDGE('',*,*,#362,.T.);
#362 = EDGE_CURVE('',#90,#363,#365,.T.);
#363 = VERTEX_POINT('',#364);
#364 = CARTESIAN_POINT('',(4.669314724882,1.65,0.));
#365 = CIRCLE('',#366,0.75);
#366 = AXIS2_PLACEMENT_3D('',#367,#368,#369);
#367 = CARTESIAN_POINT('',(4.669314724882,2.4,0.));
#368 = DIRECTION('',(0.,-0.,1.));
#369 = DIRECTION('',(0.,1.,0.));
#370 = ORIENTED_EDGE('',*,*,#371,.T.);
#371 = EDGE_CURVE('',#363,#372,#374,.T.);
#372 = VERTEX_POINT('',#373);
#373 = CARTESIAN_POINT('',(4.669314724882,1.65,-0.1));
#374 = LINE('',#375,#376);
#375 = CARTESIAN_POINT('',(4.669314724882,1.65,0.));
#376 = VECTOR('',#377,1.);
#377 = DIRECTION('',(-0.,-0.,-1.));
#378 = ORIENTED_EDGE('',*,*,#379,.F.);
#379 = EDGE_CURVE('',#146,#372,#380,.T.);
#380 = CIRCLE('',#381,0.75);
#381 = AXIS2_PLACEMENT_3D('',#382,#383,#384);
#382 = CARTESIAN_POINT('',(4.669314724882,2.4,-0.1));
#383 = DIRECTION('',(0.,-0.,1.));
#384 = DIRECTION('',(0.,1.,0.));
#385 = ORIENTED_EDGE('',*,*,#145,.F.);
#386 = CYLINDRICAL_SURFACE('',#387,0.75);
#387 = AXIS2_PLACEMENT_3D('',#388,#389,#390);
#388 = CARTESIAN_POINT('',(4.669314724882,2.4,0.));
#389 = DIRECTION('',(-0.,-0.,-1.));
#390 = DIRECTION('',(-0.88939328093,-0.457142857143,0.));
#391 = ADVANCED_FACE('',(#392),#419,.F.);
#392 = FACE_BOUND('',#393,.F.);
#393 = EDGE_LOOP('',(#394,#403,#411,#418));
#394 = ORIENTED_EDGE('',*,*,#395,.T.);
#395 = EDGE_CURVE('',#81,#396,#398,.T.);
#396 = VERTEX_POINT('',#397);
#397 = CARTESIAN_POINT('',(4.669314724882,-1.65,0.));
#398 = CIRCLE('',#399,0.75);
#399 = AXIS2_PLACEMENT_3D('',#400,#401,#402);
#400 = CARTESIAN_POINT('',(4.669314724882,-2.4,0.));
#401 = DIRECTION('',(0.,0.,-1.));
#402 = DIRECTION('',(0.,1.,0.));
#403 = ORIENTED_EDGE('',*,*,#404,.T.);
#404 = EDGE_CURVE('',#396,#405,#407,.T.);
#405 = VERTEX_POINT('',#406);
#406 = CARTESIAN_POINT('',(4.669314724882,-1.65,-0.1));
#407 = LINE('',#408,#409);
#408 = CARTESIAN_POINT('',(4.669314724882,-1.65,0.));
#409 = VECTOR('',#410,1.);
#410 = DIRECTION('',(-0.,-0.,-1.));
#411 = ORIENTED_EDGE('',*,*,#412,.F.);
#412 = EDGE_CURVE('',#154,#405,#413,.T.);
#413 = CIRCLE('',#414,0.75);
#414 = AXIS2_PLACEMENT_3D('',#415,#416,#417);
#415 = CARTESIAN_POINT('',(4.669314724882,-2.4,-0.1));
#416 = DIRECTION('',(0.,0.,-1.));
#417 = DIRECTION('',(0.,1.,0.));
#418 = ORIENTED_EDGE('',*,*,#162,.F.);
#419 = CYLINDRICAL_SURFACE('',#420,0.75);
#420 = AXIS2_PLACEMENT_3D('',#421,#422,#423);
#421 = CARTESIAN_POINT('',(4.669314724882,-2.4,0.));
#422 = DIRECTION('',(-0.,-0.,-1.));
#423 = DIRECTION('',(-0.88939328093,0.457142857143,0.));
#424 = ADVANCED_FACE('',(#425),#470,.F.);
#425 = FACE_BOUND('',#426,.F.);
#426 = EDGE_LOOP('',(#427,#428,#429,#437,#446,#454,#463,#469));
#427 = ORIENTED_EDGE('',*,*,#153,.T.);
#428 = ORIENTED_EDGE('',*,*,#412,.T.);
#429 = ORIENTED_EDGE('',*,*,#430,.T.);
#430 = EDGE_CURVE('',#405,#431,#433,.T.);
#431 = VERTEX_POINT('',#432);
#432 = CARTESIAN_POINT('',(8.05,-1.65,-0.1));
#433 = LINE('',#434,#435);
#434 = CARTESIAN_POINT('',(4.186585721086,-1.65,-0.1));
#435 = VECTOR('',#436,1.);
#436 = DIRECTION('',(1.,0.,0.));
#437 = ORIENTED_EDGE('',*,*,#438,.F.);
#438 = EDGE_CURVE('',#439,#431,#441,.T.);
#439 = VERTEX_POINT('',#440);
#440 = CARTESIAN_POINT('',(8.8,-0.9,-0.1));
#441 = CIRCLE('',#442,0.75);
#442 = AXIS2_PLACEMENT_3D('',#443,#444,#445);
#443 = CARTESIAN_POINT('',(8.05,-0.9,-0.1));
#444 = DIRECTION('',(0.,0.,-1.));
#445 = DIRECTION('',(0.,1.,0.));
#446 = ORIENTED_EDGE('',*,*,#447,.T.);
#447 = EDGE_CURVE('',#439,#448,#450,.T.);
#448 = VERTEX_POINT('',#449);
#449 = CARTESIAN_POINT('',(8.8,0.9,-0.1));
#450 = LINE('',#451,#452);
#451 = CARTESIAN_POINT('',(8.8,-1.65,-0.1));
#452 = VECTOR('',#453,1.);
#453 = DIRECTION('',(0.,1.,0.));
#454 = ORIENTED_EDGE('',*,*,#455,.F.);
#455 = EDGE_CURVE('',#456,#448,#458,.T.);
#456 = VERTEX_POINT('',#457);
#457 = CARTESIAN_POINT('',(8.05,1.65,-0.1));
#458 = CIRCLE('',#459,0.75);
#459 = AXIS2_PLACEMENT_3D('',#460,#461,#462);
#460 = CARTESIAN_POINT('',(8.05,0.9,-0.1));
#461 = DIRECTION('',(0.,0.,-1.));
#462 = DIRECTION('',(0.,1.,0.));
#463 = ORIENTED_EDGE('',*,*,#464,.T.);
#464 = EDGE_CURVE('',#456,#372,#465,.T.);
#465 = LINE('',#466,#467);
#466 = CARTESIAN_POINT('',(8.8,1.65,-0.1));
#467 = VECTOR('',#468,1.);
#468 = DIRECTION('',(-1.,0.,0.));
#469 = ORIENTED_EDGE('',*,*,#379,.F.);
#470 = PLANE('',#471);
#471 = AXIS2_PLACEMENT_3D('',#472,#473,#474);
#472 = CARTESIAN_POINT('',(2.349485251202,-1.043636938284E-16,-0.1));
#473 = DIRECTION('',(0.,0.,1.));
#474 = DIRECTION('',(1.,0.,0.));
#475 = ADVANCED_FACE('',(#476),#517,.T.);
#476 = FACE_BOUND('',#477,.T.);
#477 = EDGE_LOOP('',(#478,#488,#494,#495,#503,#511));
#478 = ORIENTED_EDGE('',*,*,#479,.F.);
#479 = EDGE_CURVE('',#480,#482,#484,.T.);
#480 = VERTEX_POINT('',#481);
#481 = CARTESIAN_POINT('',(8.8,-0.9,0.));
#482 = VERTEX_POINT('',#483);
#483 = CARTESIAN_POINT('',(8.8,-0.6,0.));
#484 = LINE('',#485,#486);
#485 = CARTESIAN_POINT('',(8.8,-1.65,0.));
#486 = VECTOR('',#487,1.);
#487 = DIRECTION('',(0.,1.,0.));
#488 = ORIENTED_EDGE('',*,*,#489,.T.);
#489 = EDGE_CURVE('',#480,#439,#490,.T.);
#490 = LINE('',#491,#492);
#491 = CARTESIAN_POINT('',(8.8,-0.9,0.));
#492 = VECTOR('',#493,1.);
#493 = DIRECTION('',(-0.,-0.,-1.));
#494 = ORIENTED_EDGE('',*,*,#447,.T.);
#495 = ORIENTED_EDGE('',*,*,#496,.F.);
#496 = EDGE_CURVE('',#497,#448,#499,.T.);
#497 = VERTEX_POINT('',#498);
#498 = CARTESIAN_POINT('',(8.8,0.9,0.));
#499 = LINE('',#500,#501);
#500 = CARTESIAN_POINT('',(8.8,0.9,0.));
#501 = VECTOR('',#502,1.);
#502 = DIRECTION('',(-0.,-0.,-1.));
#503 = ORIENTED_EDGE('',*,*,#504,.F.);
#504 = EDGE_CURVE('',#505,#497,#507,.T.);
#505 = VERTEX_POINT('',#506);
#506 = CARTESIAN_POINT('',(8.8,0.6,0.));
#507 = LINE('',#508,#509);
#508 = CARTESIAN_POINT('',(8.8,-1.65,0.));
#509 = VECTOR('',#510,1.);
#510 = DIRECTION('',(0.,1.,0.));
#511 = ORIENTED_EDGE('',*,*,#512,.F.);
#512 = EDGE_CURVE('',#482,#505,#513,.T.);
#513 = LINE('',#514,#515);
#514 = CARTESIAN_POINT('',(8.8,-1.65,0.));
#515 = VECTOR('',#516,1.);
#516 = DIRECTION('',(0.,1.,0.));
#517 = PLANE('',#518);
#518 = AXIS2_PLACEMENT_3D('',#519,#520,#521);
#519 = CARTESIAN_POINT('',(8.8,-1.65,0.));
#520 = DIRECTION('',(1.,0.,0.));
#521 = DIRECTION('',(0.,1.,0.));
#522 = ADVANCED_FACE('',(#523),#542,.T.);
#523 = FACE_BOUND('',#524,.T.);
#524 = EDGE_LOOP('',(#525,#534,#540,#541));
#525 = ORIENTED_EDGE('',*,*,#526,.T.);
#526 = EDGE_CURVE('',#480,#527,#529,.T.);
#527 = VERTEX_POINT('',#528);
#528 = CARTESIAN_POINT('',(8.05,-1.65,0.));
#529 = CIRCLE('',#530,0.75);
#530 = AXIS2_PLACEMENT_3D('',#531,#532,#533);
#531 = CARTESIAN_POINT('',(8.05,-0.9,0.));
#532 = DIRECTION('',(0.,0.,-1.));
#533 = DIRECTION('',(0.,1.,0.));
#534 = ORIENTED_EDGE('',*,*,#535,.T.);
#535 = EDGE_CURVE('',#527,#431,#536,.T.);
#536 = LINE('',#537,#538);
#537 = CARTESIAN_POINT('',(8.05,-1.65,0.));
#538 = VECTOR('',#539,1.);
#539 = DIRECTION('',(-0.,-0.,-1.));
#540 = ORIENTED_EDGE('',*,*,#438,.F.);
#541 = ORIENTED_EDGE('',*,*,#489,.F.);
#542 = CYLINDRICAL_SURFACE('',#543,0.75);
#543 = AXIS2_PLACEMENT_3D('',#544,#545,#546);
#544 = CARTESIAN_POINT('',(8.05,-0.9,0.));
#545 = DIRECTION('',(-0.,-0.,-1.));
#546 = DIRECTION('',(1.,0.,0.));
#547 = ADVANCED_FACE('',(#548),#559,.T.);
#548 = FACE_BOUND('',#549,.T.);
#549 = EDGE_LOOP('',(#550,#556,#557,#558));
#550 = ORIENTED_EDGE('',*,*,#551,.F.);
#551 = EDGE_CURVE('',#396,#527,#552,.T.);
#552 = LINE('',#553,#554);
#553 = CARTESIAN_POINT('',(4.186585721086,-1.65,0.));
#554 = VECTOR('',#555,1.);
#555 = DIRECTION('',(1.,0.,0.));
#556 = ORIENTED_EDGE('',*,*,#404,.T.);
#557 = ORIENTED_EDGE('',*,*,#430,.T.);
#558 = ORIENTED_EDGE('',*,*,#535,.F.);
#559 = PLANE('',#560);
#560 = AXIS2_PLACEMENT_3D('',#561,#562,#563);
#561 = CARTESIAN_POINT('',(4.186585721086,-1.65,0.));
#562 = DIRECTION('',(0.,-1.,0.));
#563 = DIRECTION('',(1.,0.,0.));
#564 = ADVANCED_FACE('',(#565),#586,.T.);
#565 = FACE_BOUND('',#566,.F.);
#566 = EDGE_LOOP('',(#567,#568,#569,#578,#585));
#567 = ORIENTED_EDGE('',*,*,#176,.F.);
#568 = ORIENTED_EDGE('',*,*,#277,.T.);
#569 = ORIENTED_EDGE('',*,*,#570,.T.);
#570 = EDGE_CURVE('',#251,#571,#573,.T.);
#571 = VERTEX_POINT('',#572);
#572 = CARTESIAN_POINT('',(4.5,0.,0.));
#573 = CIRCLE('',#574,0.5);
#574 = AXIS2_PLACEMENT_3D('',#575,#576,#577);
#575 = CARTESIAN_POINT('',(4.5,0.,0.5));
#576 = DIRECTION('',(-0.,1.,0.));
#577 = DIRECTION('',(1.,0.,0.));
#578 = ORIENTED_EDGE('',*,*,#579,.F.);
#579 = EDGE_CURVE('',#50,#571,#580,.T.);
#580 = CIRCLE('',#581,4.5);
#581 = AXIS2_PLACEMENT_3D('',#582,#583,#584);
#582 = CARTESIAN_POINT('',(0.,0.,0.));
#583 = DIRECTION('',(0.,0.,1.));
#584 = DIRECTION('',(1.,0.,0.));
#585 = ORIENTED_EDGE('',*,*,#211,.F.);
#586 = TOROIDAL_SURFACE('',#587,4.5,0.5);
#587 = AXIS2_PLACEMENT_3D('',#588,#589,#590);
#588 = CARTESIAN_POINT('',(0.,0.,0.5));
#589 = DIRECTION('',(-0.,-0.,-1.));
#590 = DIRECTION('',(1.,0.,0.));
#591 = ADVANCED_FACE('',(#592),#595,.T.);
#592 = FACE_BOUND('',#593,.T.);
#593 = EDGE_LOOP('',(#594));
#594 = ORIENTED_EDGE('',*,*,#203,.T.);
#595 = PLANE('',#596);
#596 = AXIS2_PLACEMENT_3D('',#597,#598,#599);
#597 = CARTESIAN_POINT('',(10.,-5.341563017732E-17,0.3));
#598 = DIRECTION('',(1.,0.,0.));
#599 = DIRECTION('',(0.,0.,1.));
#600 = ADVANCED_FACE('',(#601),#613,.T.);
#601 = FACE_BOUND('',#602,.F.);
#602 = EDGE_LOOP('',(#603,#610,#611,#612));
#603 = ORIENTED_EDGE('',*,*,#604,.F.);
#604 = EDGE_CURVE('',#571,#108,#605,.T.);
#605 = CIRCLE('',#606,4.5);
#606 = AXIS2_PLACEMENT_3D('',#607,#608,#609);
#607 = CARTESIAN_POINT('',(0.,0.,0.));
#608 = DIRECTION('',(0.,0.,1.));
#609 = DIRECTION('',(1.,0.,0.));
#610 = ORIENTED_EDGE('',*,*,#570,.F.);
#611 = ORIENTED_EDGE('',*,*,#250,.T.);
#612 = ORIENTED_EDGE('',*,*,#327,.T.);
#613 = TOROIDAL_SURFACE('',#614,4.5,0.5);
#614 = AXIS2_PLACEMENT_3D('',#615,#616,#617);
#615 = CARTESIAN_POINT('',(0.,0.,0.5));
#616 = DIRECTION('',(-0.,-0.,-1.));
#617 = DIRECTION('',(1.,0.,0.));
#618 = ADVANCED_FACE('',(#619),#639,.T.);
#619 = FACE_BOUND('',#620,.T.);
#620 = EDGE_LOOP('',(#621,#630,#631,#632));
#621 = ORIENTED_EDGE('',*,*,#622,.F.);
#622 = EDGE_CURVE('',#262,#623,#625,.T.);
#623 = VERTEX_POINT('',#624);
#624 = CARTESIAN_POINT('',(4.5,0.,3.7));
#625 = CIRCLE('',#626,0.5);
#626 = AXIS2_PLACEMENT_3D('',#627,#628,#629);
#627 = CARTESIAN_POINT('',(4.5,0.,3.2));
#628 = DIRECTION('',(0.,-1.,0.));
#629 = DIRECTION('',(1.,0.,0.));
#630 = ORIENTED_EDGE('',*,*,#269,.T.);
#631 = ORIENTED_EDGE('',*,*,#622,.T.);
#632 = ORIENTED_EDGE('',*,*,#633,.F.);
#633 = EDGE_CURVE('',#623,#623,#634,.T.);
#634 = CIRCLE('',#635,4.5);
#635 = AXIS2_PLACEMENT_3D('',#636,#637,#638);
#636 = CARTESIAN_POINT('',(0.,0.,3.7));
#637 = DIRECTION('',(0.,0.,1.));
#638 = DIRECTION('',(1.,0.,0.));
#639 = TOROIDAL_SURFACE('',#640,4.5,0.5);
#640 = AXIS2_PLACEMENT_3D('',#641,#642,#643);
#641 = CARTESIAN_POINT('',(0.,0.,3.2));
#642 = DIRECTION('',(0.,0.,1.));
#643 = DIRECTION('',(1.,0.,0.));
#644 = ADVANCED_FACE('',(#645),#648,.T.);
#645 = FACE_BOUND('',#646,.T.);
#646 = EDGE_LOOP('',(#647));
#647 = ORIENTED_EDGE('',*,*,#318,.T.);
#648 = PLANE('',#649);
#649 = AXIS2_PLACEMENT_3D('',#650,#651,#652);
#650 = CARTESIAN_POINT('',(10.,-5.341563017732E-17,0.3));
#651 = DIRECTION('',(1.,0.,0.));
#652 = DIRECTION('',(0.,0.,1.));
#653 = ADVANCED_FACE('',(#654),#673,.T.);
#654 = FACE_BOUND('',#655,.T.);
#655 = EDGE_LOOP('',(#656,#665,#666,#667));
#656 = ORIENTED_EDGE('',*,*,#657,.T.);
#657 = EDGE_CURVE('',#658,#497,#660,.T.);
#658 = VERTEX_POINT('',#659);
#659 = CARTESIAN_POINT('',(8.05,1.65,0.));
#660 = CIRCLE('',#661,0.75);
#661 = AXIS2_PLACEMENT_3D('',#662,#663,#664);
#662 = CARTESIAN_POINT('',(8.05,0.9,0.));
#663 = DIRECTION('',(0.,0.,-1.));
#664 = DIRECTION('',(0.,1.,0.));
#665 = ORIENTED_EDGE('',*,*,#496,.T.);
#666 = ORIENTED_EDGE('',*,*,#455,.F.);
#667 = ORIENTED_EDGE('',*,*,#668,.F.);
#668 = EDGE_CURVE('',#658,#456,#669,.T.);
#669 = LINE('',#670,#671);
#670 = CARTESIAN_POINT('',(8.05,1.65,0.));
#671 = VECTOR('',#672,1.);
#672 = DIRECTION('',(-0.,-0.,-1.));
#673 = CYLINDRICAL_SURFACE('',#674,0.75);
#674 = AXIS2_PLACEMENT_3D('',#675,#676,#677);
#675 = CARTESIAN_POINT('',(8.05,0.9,0.));
#676 = DIRECTION('',(-0.,-0.,-1.));
#677 = DIRECTION('',(0.,1.,0.));
#678 = ADVANCED_FACE('',(#679),#690,.T.);
#679 = FACE_BOUND('',#680,.T.);
#680 = EDGE_LOOP('',(#681,#687,#688,#689));
#681 = ORIENTED_EDGE('',*,*,#682,.F.);
#682 = EDGE_CURVE('',#658,#363,#683,.T.);
#683 = LINE('',#684,#685);
#684 = CARTESIAN_POINT('',(8.8,1.65,0.));
#685 = VECTOR('',#686,1.);
#686 = DIRECTION('',(-1.,0.,0.));
#687 = ORIENTED_EDGE('',*,*,#668,.T.);
#688 = ORIENTED_EDGE('',*,*,#464,.T.);
#689 = ORIENTED_EDGE('',*,*,#371,.F.);
#690 = PLANE('',#691);
#691 = AXIS2_PLACEMENT_3D('',#692,#693,#694);
#692 = CARTESIAN_POINT('',(8.8,1.65,0.));
#693 = DIRECTION('',(0.,1.,0.));
#694 = DIRECTION('',(-1.,0.,0.));
#695 = ADVANCED_FACE('',(#696),#699,.T.);
#696 = FACE_BOUND('',#697,.T.);
#697 = EDGE_LOOP('',(#698));
#698 = ORIENTED_EDGE('',*,*,#633,.T.);
#699 = PLANE('',#700);
#700 = AXIS2_PLACEMENT_3D('',#701,#702,#703);
#701 = CARTESIAN_POINT('',(-2.734880265079E-16,3.428682531579E-16,3.7));
#702 = DIRECTION('',(0.,0.,1.));
#703 = DIRECTION('',(1.,0.,0.));
#704 = ADVANCED_FACE('',(#705),#722,.T.);
#705 = FACE_BOUND('',#706,.T.);
#706 = EDGE_LOOP('',(#707,#708,#709,#710,#711,#712,#713,#714,#715,#716,
    #717,#718,#719,#720,#721));
#707 = ORIENTED_EDGE('',*,*,#479,.T.);
#708 = ORIENTED_EDGE('',*,*,#512,.T.);
#709 = ORIENTED_EDGE('',*,*,#504,.T.);
#710 = ORIENTED_EDGE('',*,*,#657,.F.);
#711 = ORIENTED_EDGE('',*,*,#682,.T.);
#712 = ORIENTED_EDGE('',*,*,#362,.F.);
#713 = ORIENTED_EDGE('',*,*,#98,.F.);
#714 = ORIENTED_EDGE('',*,*,#107,.F.);
#715 = ORIENTED_EDGE('',*,*,#604,.F.);
#716 = ORIENTED_EDGE('',*,*,#579,.F.);
#717 = ORIENTED_EDGE('',*,*,#71,.F.);
#718 = ORIENTED_EDGE('',*,*,#80,.F.);
#719 = ORIENTED_EDGE('',*,*,#395,.T.);
#720 = ORIENTED_EDGE('',*,*,#551,.T.);
#721 = ORIENTED_EDGE('',*,*,#526,.F.);
#722 = PLANE('',#723);
#723 = AXIS2_PLACEMENT_3D('',#724,#725,#726);
#724 = CARTESIAN_POINT('',(6.204108057253,-1.07400873834E-15,0.));
#725 = DIRECTION('',(0.,0.,1.));
#726 = DIRECTION('',(1.,0.,0.));
#727 = ( GEOMETRIC_REPRESENTATION_CONTEXT(3) 
GLOBAL_UNCERTAINTY_ASSIGNED_CONTEXT((#731)) GLOBAL_UNIT_ASSIGNED_CONTEXT
((#728,#729,#730)) REPRESENTATION_CONTEXT('Context #1',
  '3D Context with UNIT and UNCERTAINTY') );
#728 = ( LENGTH_UNIT() NAMED_UNIT(*) SI_UNIT(.MILLI.,.METRE.) );
#729 = ( NAMED_UNIT(*) PLANE_ANGLE_UNIT() SI_UNIT($,.RADIAN.) );
#730 = ( NAMED_UNIT(*) SI_UNIT($,.STERADIAN.) SOLID_ANGLE_UNIT() );
#731 = UNCERTAINTY_MEASURE_WITH_UNIT(LENGTH_MEASURE(5.E-07),#728,
  'distance_accuracy_value','confusion accuracy');
#732 = PRODUCT_RELATED_PRODUCT_CATEGORY('part',$,(#7));
#733 = MECHANICAL_DESIGN_GEOMETRIC_PRESENTATION_REPRESENTATION('',(#734)
  ,#727);
#734 = STYLED_ITEM('color',(#735),#15);
#735 = PRESENTATION_STYLE_ASSIGNMENT((#736,#742));
#736 = SURFACE_STYLE_USAGE(.BOTH.,#737);
#737 = SURFACE_SIDE_STYLE('',(#738));
#738 = SURFACE_STYLE_FILL_AREA(#739);
#739 = FILL_AREA_STYLE('',(#740));
#740 = FILL_AREA_STYLE_COLOUR('',#741);
#741 = COLOUR_RGB('',0.447058818107,0.474509808674,0.501960817233);
#742 = CURVE_STYLE('',#743,POSITIVE_LENGTH_MEASURE(0.1),#744);
#743 = DRAUGHTING_PRE_DEFINED_CURVE_FONT('continuous');
#744 = COLOUR_RGB('',9.803921802644E-02,9.803921802644E-02,
  9.803921802644E-02);
ENDSEC;
END-ISO-10303-21;
